<svg id="Icons" height="512" viewBox="0 0 74 74" width="512" xmlns="http://www.w3.org/2000/svg"><path d="m21.781 61.271c-7.329 0-13.291-5.683-13.291-12.671s5.962-12.666 13.291-12.666 13.292 5.686 13.292 12.666-5.963 12.671-13.292 12.671zm0-23.333c-6.225 0-11.291 4.785-11.291 10.666s5.066 10.667 11.291 10.667 11.292-4.785 11.292-10.671-5.065-10.662-11.292-10.662z"/><path d="m52.214 61.271c-7.329 0-13.292-5.683-13.292-12.667s5.963-12.666 13.292-12.666 13.292 5.682 13.292 12.662-5.963 12.671-13.292 12.671zm0-23.333c-6.227 0-11.292 4.785-11.292 10.666s5.065 10.667 11.292 10.667 11.292-4.785 11.292-10.671-5.066-10.662-11.292-10.662z"/><path d="m42.309 42.694a1 1 0 0 1 -.424-.094 11.7 11.7 0 0 0 -9.781 0 1 1 0 1 1 -.848-1.811 13.711 13.711 0 0 1 11.478 0 1 1 0 0 1 -.425 1.905z"/><path d="m9.489 46.729a1 1 0 0 1 -.435-.1l-2.232-1.082a3.394 3.394 0 0 1 -1.73-4.132l7.821-26.142a3.693 3.693 0 0 1 7.2 1.149v1.057a1 1 0 0 1 -2 0v-1.057a1.693 1.693 0 0 0 -3.3-.542l-7.813 26.141a1.4 1.4 0 0 0 .7 1.727l2.232 1.081a1 1 0 0 1 -.438 1.9z"/><path d="m64.511 46.729a1 1 0 0 1 -.438-1.9l2.232-1.081a1.392 1.392 0 0 0 .709-1.693l-7.843-26.209a1.694 1.694 0 0 0 -3.286.576v1.057a1 1 0 1 1 -2 0v-1.057a3.693 3.693 0 0 1 7.191-1.183l7.843 26.209a3.385 3.385 0 0 1 -1.741 4.1l-2.232 1.082a1 1 0 0 1 -.435.099z"/></svg>