<svg height="512pt" viewBox="-37 0 512 512" width="512pt" xmlns="http://www.w3.org/2000/svg"><path d="m97.5 129h243v-99h24.5v86h30v-86h26.5v-30h-405v30h81zm0 0"/><path d="m127.5 189.546875c0 50.453125 41.046875 91.5 91.5 91.5s91.5-41.046875 91.5-91.5v-30.546875h-183zm0 0"/><path d="m338.839844 285.179688-119.839844 162.046874-119.839844-162.046874c-56.949218 14.625-99.160156 66.398437-99.160156 127.84375v98.976562h438v-98.976562c0-61.445313-42.210938-113.21875-99.160156-127.84375zm0 0"/><path d="m304.582031 281.046875h-5.734375c-21.371094 18.671875-49.308594 30-79.847656 30s-58.480469-11.328125-79.847656-30h-5.734375l85.582031 115.726563zm0 0"/></svg>